solid 2D Sheet on Z=0
facet normal -0 0 -1
outer loop
vertex 0.1928381200219628 -0.00046930842247746435 0
vertex 0.35717050744352535 -0.2492375839553295 0
vertex 0.3565617708091708 -0.24809389910614693 0
endloop
endfacet
facet normal -0 0 -1
outer loop
vertex 0.1928381200219628 -0.00046930842247746435 0
vertex 0.3565617708091708 -0.24809389910614693 0
vertex 0.3559117928601487 -0.24689490880681597 0
endloop
endfacet
facet normal -0 0 -1
outer loop
vertex 0.1928381200219628 -0.00046930842247746435 0
vertex 0.3559117928601487 -0.24689490880681597 0
vertex 0.35521996786504534 -0.24564180316377832 0
endloop
endfacet
facet normal -0 0 -1
outer loop
vertex 0.1928381200219628 -0.00046930842247746435 0
vertex 0.35521996786504534 -0.24564180316377832 0
vertex 0.354485698736629 -0.2443357679128969 0
endloop
endfacet
facet normal -0 0 -1
outer loop
vertex 0.1928381200219628 -0.00046930842247746435 0
vertex 0.354485698736629 -0.2443357679128969 0
vertex 0.3537083974140003 -0.2429779844919801 0
endloop
endfacet
facet normal -0 0 -1
outer loop
vertex 0.1928381200219628 -0.00046930842247746435 0
vertex 0.3537083974140003 -0.2429779844919801 0
vertex 0.3528874852269107 -0.24156963010009155 0
endloop
endfacet
facet normal -0 0 -1
outer loop
vertex 0.1928381200219628 -0.00046930842247746435 0
vertex 0.3528874852269107 -0.24156963010009155 0
vertex 0.3520223932429262 -0.24011187774391446 0
endloop
endfacet
facet normal -0 0 -1
outer loop
vertex 0.1928381200219628 -0.00046930842247746435 0
vertex 0.3520223932429262 -0.24011187774391446 0
vertex 0.3511125625980707 -0.23860589627143813 0
endloop
endfacet
facet normal -0 0 -1
outer loop
vertex 0.1928381200219628 -0.00046930842247746435 0
vertex 0.3511125625980707 -0.23860589627143813 0
vertex 0.3501574448115523 -0.23705285039323284 0
endloop
endfacet
facet normal -0 0 -1
outer loop
vertex 0.1928381200219628 -0.00046930842247746435 0
vertex 0.3501574448115523 -0.23705285039323284 0
vertex 0.34915650208513815 -0.23545390069158023 0
endloop
endfacet
facet normal -0 0 -1
outer loop
vertex 0.1928381200219628 -0.00046930842247746435 0
vertex 0.34915650208513815 -0.23545390069158023 0
vertex 0.34810920758771574 -0.2338102036177229 0
endloop
endfacet
facet normal -0 0 -1
outer loop
vertex 0.1928381200219628 -0.00046930842247746435 0
vertex 0.34810920758771574 -0.2338102036177229 0
vertex 0.347015045725545 -0.23212291147749453 0
endloop
endfacet
facet normal -0 0 -1
outer loop
vertex 0.1928381200219628 -0.00046930842247746435 0
vertex 0.347015045725545 -0.23212291147749453 0
vertex 0.3458735123986804 -0.2303931724055898 0
endloop
endfacet
facet normal -0 0 -1
outer loop
vertex 0.1928381200219628 -0.00046930842247746435 0
vertex 0.3458735123986804 -0.2303931724055898 0
vertex 0.34468411524401554 -0.22862213032872838 0
endloop
endfacet
facet normal -0 0 -1
outer loop
vertex 0.1928381200219628 -0.00046930842247746435 0
vertex 0.34468411524401554 -0.22862213032872838 0
vertex 0.3434463738653754 -0.22681092491796578 0
endloop
endfacet
facet normal -0 0 -1
outer loop
vertex 0.1928381200219628 -0.00046930842247746435 0
vertex 0.3434463738653754 -0.22681092491796578 0
vertex 0.34215982005106294 -0.22496069153039694 0
endloop
endfacet
facet normal -0 0 -1
outer loop
vertex 0.1928381200219628 -0.00046930842247746435 0
vertex 0.34215982005106294 -0.22496069153039694 0
vertex 0.340823997979239 -0.22307256114049573 0
endloop
endfacet
facet normal -0 0 -1
outer loop
vertex 0.1928381200219628 -0.00046930842247746435 0
vertex 0.340823997979239 -0.22307256114049573 0
vertex 0.33943846441150033 -0.22114766026132904 0
endloop
endfacet
facet normal -0 0 -1
outer loop
vertex 0.1928381200219628 -0.00046930842247746435 0
vertex 0.33943846441150033 -0.22114766026132904 0
vertex 0.33800278887499496 -0.21918711085587664 0
endloop
endfacet
facet normal -0 0 -1
outer loop
vertex 0.1928381200219628 -0.00046930842247746435 0
vertex 0.33800278887499496 -0.21918711085587664 0
vertex 0.3365165538334018 -0.21719203023868602 0
endloop
endfacet
facet normal -0 0 -1
outer loop
vertex 0.1928381200219628 -0.00046930842247746435 0
vertex 0.3365165538334018 -0.21719203023868602 0
vertex 0.3349793548470803 -0.2151635309680837 0
endloop
endfacet
facet normal -0 0 -1
outer loop
vertex 0.1928381200219628 -0.00046930842247746435 0
vertex 0.3349793548470803 -0.2151635309680837 0
vertex 0.3333908007226832 -0.21310272072915915 0
endloop
endfacet
facet normal -0 0 -1
outer loop
vertex 0.1928381200219628 -0.00046930842247746435 0
vertex 0.3333908007226832 -0.21310272072915915 0
vertex 0.33175051365250713 -0.21101070220773274 0
endloop
endfacet
facet normal -0 0 -1
outer loop
vertex 0.1928381200219628 -0.00046930842247746435 0
vertex 0.33175051365250713 -0.21101070220773274 0
vertex 0.3300581293438474 -0.20888857295551203 0
endloop
endfacet
facet normal -0 0 -1
outer loop
vertex 0.1928381200219628 -0.00046930842247746435 0
vertex 0.3300581293438474 -0.20888857295551203 0
vertex 0.32831329713860374 -0.2067374252466351 0
endloop
endfacet
facet normal -0 0 -1
outer loop
vertex 0.1928381200219628 -0.00046930842247746435 0
vertex 0.32831329713860374 -0.2067374252466351 0
vertex 0.3265156801233783 -0.20455834592579414 0
endloop
endfacet
facet normal -0 0 -1
outer loop
vertex 0.1928381200219628 -0.00046930842247746435 0
vertex 0.3265156801233783 -0.20455834592579414 0
vertex 0.3246649552302903 -0.2023524162481242 0
endloop
endfacet
facet normal -0 0 -1
outer loop
vertex 0.1928381200219628 -0.00046930842247746435 0
vertex 0.3246649552302903 -0.2023524162481242 0
vertex 0.32276081332872725 -0.20012071171103848 0
endloop
endfacet
facet normal -0 0 -1
outer loop
vertex 0.1928381200219628 -0.00046930842247746435 0
vertex 0.32276081332872725 -0.20012071171103848 0
vertex 0.32080295930823655 -0.19786430187818282 0
endloop
endfacet
facet normal -0 0 -1
outer loop
vertex 0.1928381200219628 -0.00046930842247746435 0
vertex 0.32080295930823655 -0.19786430187818282 0
vertex 0.31879111215275885 -0.19558425019567618 0
endloop
endfacet
facet normal -0 0 -1
outer loop
vertex 0.1928381200219628 -0.00046930842247746435 0
vertex 0.31879111215275885 -0.19558425019567618 0
vertex 0.31672500500639145 -0.1932816138007976 0
endloop
endfacet
facet normal -0 0 -1
outer loop
vertex 0.1928381200219628 -0.00046930842247746435 0
vertex 0.31672500500639145 -0.1932816138007976 0
vertex 0.31460438523086526 -0.19095744332327388 0
endloop
endfacet
facet normal -0 0 -1
outer loop
vertex 0.1928381200219628 -0.00046930842247746435 0
vertex 0.31460438523086526 -0.19095744332327388 0
vertex 0.31242901445491134 -0.18861278267931267 0
endloop
endfacet
facet normal -0 0 -1
outer loop
vertex 0.1928381200219628 -0.00046930842247746435 0
vertex 0.31242901445491134 -0.18861278267931267 0
vertex 0.31019866861568585 -0.1862486688585238 0
endloop
endfacet
facet normal -0 0 -1
outer loop
vertex 0.1928381200219628 -0.00046930842247746435 0
vertex 0.31019866861568585 -0.1862486688585238 0
vertex 0.3079131379924189 -0.18386613170385957 0
endloop
endfacet
facet normal -0 0 -1
outer loop
vertex 0.1928381200219628 -0.00046930842247746435 0
vertex 0.3079131379924189 -0.18386613170385957 0
vertex 0.3055722272324439 -0.18146619368470035 0
endloop
endfacet
facet normal -0 0 -1
outer loop
vertex 0.1928381200219628 -0.00046930842247746435 0
vertex 0.3055722272324439 -0.18146619368470035 0
vertex 0.30317575536976543 -0.1790498696632063 0
endloop
endfacet
facet normal -0 0 -1
outer loop
vertex 0.1928381200219628 -0.00046930842247746435 0
vertex 0.30317575536976543 -0.1790498696632063 0
vertex 0.3007235558363113 -0.1766181666540436 0
endloop
endfacet
facet normal -0 0 -1
outer loop
vertex 0.1928381200219628 -0.00046930842247746435 0
vertex 0.3007235558363113 -0.1766181666540436 0
vertex 0.29821547646602004 -0.17417208357759295 0
endloop
endfacet
facet normal -0 0 -1
outer loop
vertex 0.1928381200219628 -0.00046930842247746435 0
vertex 0.29821547646602004 -0.17417208357759295 0
vertex 0.29565137949190523 -0.17171261100673546 0
endloop
endfacet
facet normal -0 0 -1
outer loop
vertex 0.1928381200219628 -0.00046930842247746435 0
vertex 0.29565137949190523 -0.17171261100673546 0
vertex 0.29303114153623977 -0.1692407309073064 0
endloop
endfacet
facet normal -0 0 -1
outer loop
vertex 0.1928381200219628 -0.00046930842247746435 0
vertex 0.29303114153623977 -0.1692407309073064 0
vertex 0.2903546535939965 -0.16675741637229832 0
endloop
endfacet
facet normal -0 0 -1
outer loop
vertex 0.1928381200219628 -0.00046930842247746435 0
vertex 0.2903546535939965 -0.16675741637229832 0
vertex 0.287621821009688 -0.16426363134988953 0
endloop
endfacet
facet normal -0 0 -1
outer loop
vertex 0.1928381200219628 -0.00046930842247746435 0
vertex 0.287621821009688 -0.16426363134988953 0
vertex 0.2848325634477377 -0.1617603303653626 0
endloop
endfacet
facet normal -0 0 -1
outer loop
vertex 0.1928381200219628 -0.00046930842247746435 0
vertex 0.2848325634477377 -0.1617603303653626 0
vertex 0.28198681485652105 -0.1592484582369732 0
endloop
endfacet
facet normal -0 0 -1
outer loop
vertex 0.1928381200219628 -0.00046930842247746435 0
vertex 0.28198681485652105 -0.1592484582369732 0
vertex 0.2790845234262122 -0.15672894978582022 0
endloop
endfacet
facet normal -0 0 -1
outer loop
vertex 0.1928381200219628 -0.00046930842247746435 0
vertex 0.2790845234262122 -0.15672894978582022 0
vertex 0.2761256515405727 -0.15420272953975875 0
endloop
endfacet
facet normal -0 0 -1
outer loop
vertex 0.1928381200219628 -0.00046930842247746435 0
vertex 0.2761256515405727 -0.15420272953975875 0
vertex 0.27311017572281915 -0.15167071143139124 0
endloop
endfacet
facet normal -0 0 -1
outer loop
vertex 0.1928381200219628 -0.00046930842247746435 0
vertex 0.27311017572281915 -0.15167071143139124 0
vertex 0.2700380865757078 -0.14913379849016312 0
endloop
endfacet
facet normal -0 0 -1
outer loop
vertex 0.1928381200219628 -0.00046930842247746435 0
vertex 0.2700380865757078 -0.14913379849016312 0
vertex 0.2669093887159775 -0.14659288252857883 0
endloop
endfacet
facet normal -0 0 -1
outer loop
vertex 0.1928381200219628 -0.00046930842247746435 0
vertex 0.2669093887159775 -0.14659288252857883 0
vertex 0.26372410070329116 -0.14404884382254882 0
endloop
endfacet
facet normal -0 0 -1
outer loop
vertex 0.1928381200219628 -0.00046930842247746435 0
vertex 0.26372410070329116 -0.14404884382254882 0
vertex 0.26048225496382166 -0.14150255078586552 0
endloop
endfacet
facet normal -0 0 -1
outer loop
vertex 0.1928381200219628 -0.00046930842247746435 0
vertex 0.26048225496382166 -0.14150255078586552 0
vertex 0.2571838977086305 -0.13895485963880042 0
endloop
endfacet
facet normal -0 0 -1
outer loop
vertex 0.1928381200219628 -0.00046930842247746435 0
vertex 0.2571838977086305 -0.13895485963880042 0
vertex 0.2538290888469892 -0.13640661407080162 0
endloop
endfacet
facet normal -0 0 -1
outer loop
vertex 0.1928381200219628 -0.00046930842247746435 0
vertex 0.2538290888469892 -0.13640661407080162 0
vertex 0.25041790189479984 -0.13385864489726615 0
endloop
endfacet
facet normal -0 0 -1
outer loop
vertex 0.1928381200219628 -0.00046930842247746435 0
vertex 0.25041790189479984 -0.13385864489726615 0
vertex 0.24695042387827512 -0.13131176971034578 0
endloop
endfacet
facet normal -0 0 -1
outer loop
vertex 0.1928381200219628 -0.00046930842247746435 0
vertex 0.24695042387827512 -0.13131176971034578 0
vertex 0.243426755233042 -0.1287667925237418 0
endloop
endfacet
facet normal -0 0 -1
outer loop
vertex 0.1928381200219628 -0.00046930842247746435 0
vertex 0.243426755233042 -0.1287667925237418 0
vertex 0.2398470096988411 -0.1262245034114278 0
endloop
endfacet
facet normal -0 0 -1
outer loop
vertex 0.1928381200219628 -0.00046930842247746435 0
vertex 0.2398470096988411 -0.1262245034114278 0
vertex 0.23621131420999855 -0.12368567814023382 0
endloop
endfacet
facet normal -0 0 -1
outer loop
vertex 0.1928381200219628 -0.00046930842247746435 0
vertex 0.23621131420999855 -0.12368567814023382 0
vertex 0.23251980878185347 -0.12115107779621032 0
endloop
endfacet
facet normal -0 0 -1
outer loop
vertex 0.1928381200219628 -0.00046930842247746435 0
vertex 0.23251980878185347 -0.12115107779621032 0
vertex 0.2287726463933346 -0.11862144840468487 0
endloop
endfacet
facet normal -0 0 -1
outer loop
vertex 0.1928381200219628 -0.00046930842247746435 0
vertex 0.2287726463933346 -0.11862144840468487 0
vertex 0.22496999286588362 -0.11609752054390635 0
endloop
endfacet
facet normal -0 0 -1
outer loop
vertex 0.1928381200219628 -0.00046930842247746435 0
vertex 0.22496999286588362 -0.11609752054390635 0
vertex 0.22111202673893504 -0.11358000895216655 0
endloop
endfacet
facet normal -0 0 -1
outer loop
vertex 0.1928381200219628 -0.00046930842247746435 0
vertex 0.22111202673893504 -0.11358000895216655 0
vertex 0.21719893914217003 -0.11106961212827268 0
endloop
endfacet
facet normal -0 0 -1
outer loop
vertex 0.1928381200219628 -0.00046930842247746435 0
vertex 0.21719893914217003 -0.11106961212827268 0
vertex 0.213230933664773 -0.10856701192523407 0
endloop
endfacet
facet normal -0 0 -1
outer loop
vertex 0.1928381200219628 -0.00046930842247746435 0
vertex 0.213230933664773 -0.10856701192523407 0
vertex 0.2092082262219297 -0.10607287313701377 0
endloop
endfacet
facet normal -0 0 -1
outer loop
vertex 0.1928381200219628 -0.00046930842247746435 0
vertex 0.2092082262219297 -0.10607287313701377 0
vertex 0.20513104491881917 -0.1035878430781827 0
endloop
endfacet
facet normal -0 0 -1
outer loop
vertex 0.1928381200219628 -0.00046930842247746435 0
vertex 0.20513104491881917 -0.1035878430781827 0
vertex 0.20099962991236225 -0.10111255115630113 0
endloop
endfacet
facet normal -0 0 -1
outer loop
vertex 0.1928381200219628 -0.00046930842247746435 0
vertex 0.20099962991236225 -0.10111255115630113 0
vertex 0.19681423327100678 -0.09864760843683898 0
endloop
endfacet
facet normal -0 0 -1
outer loop
vertex 0.1928381200219628 -0.00046930842247746435 0
vertex 0.19681423327100678 -0.09864760843683898 0
vertex 0.19257511883283918 -0.09619360720043081 0
endloop
endfacet
facet normal -0 0 -1
outer loop
vertex 0.1928381200219628 -0.00046930842247746435 0
vertex 0.19257511883283918 -0.09619360720043081 0
vertex 0.18828256206233412 -0.09375112049225173 0
endloop
endfacet
facet normal -0 0 -1
outer loop
vertex 0.1928381200219628 -0.00046930842247746435 0
vertex 0.18828256206233412 -0.09375112049225173 0
vertex 0.1839368499060653 -0.0913207016632804 0
endloop
endfacet
facet normal -0 0 -1
outer loop
vertex 0.1928381200219628 -0.00046930842247746435 0
vertex 0.1839368499060653 -0.0913207016632804 0
vertex 0.17953828064772182 -0.08890288390320493 0
endloop
endfacet
facet normal -0 0 -1
outer loop
vertex 0.1928381200219628 -0.00046930842247746435 0
vertex 0.17953828064772182 -0.08890288390320493 0
vertex 0.1750871637627929 -0.08649817976470922 0
endloop
endfacet
facet normal -0 0 -1
outer loop
vertex 0.1928381200219628 -0.00046930842247746435 0
vertex 0.1750871637627929 -0.08649817976470922 0
vertex 0.17058381977330486 -0.08410708067886444 0
endloop
endfacet
facet normal -0 0 -1
outer loop
vertex 0.1928381200219628 -0.00046930842247746435 0
vertex 0.17058381977330486 -0.08410708067886444 0
vertex 0.1660285801030149 -0.081730056461332 0
endloop
endfacet
facet normal -0 0 -1
outer loop
vertex 0.1928381200219628 -0.00046930842247746435 0
vertex 0.1660285801030149 -0.081730056461332 0
vertex 0.16142178693349227 -0.07936755480906965 0
endloop
endfacet
facet normal -0 0 -1
outer loop
vertex 0.1928381200219628 -0.00046930842247746435 0
vertex 0.16142178693349227 -0.07936755480906965 0
vertex 0.1567637930615416 -0.07702000078721583 0
endloop
endfacet
facet normal -0 0 -1
outer loop
vertex 0.1928381200219628 -0.00046930842247746435 0
vertex 0.1567637930615416 -0.07702000078721583 0
vertex 0.15205496175844746 -0.0746877963058083 0
endloop
endfacet
facet normal -0 0 -1
outer loop
vertex 0.1928381200219628 -0.00046930842247746435 0
vertex 0.15205496175844746 -0.0746877963058083 0
vertex 0.1472956666315542 -0.07237131958597992 0
endloop
endfacet
facet normal -0 0 -1
outer loop
vertex 0.1928381200219628 -0.00046930842247746435 0
vertex 0.1472956666315542 -0.07237131958597992 0
vertex 0.142486291488719 -0.0700709246152524 0
endloop
endfacet
facet normal -0 0 -1
outer loop
vertex 0.1928381200219628 -0.00046930842247746435 0
vertex 0.142486291488719 -0.0700709246152524 0
vertex 0.1376272302062135 -0.06778694059153442 0
endloop
endfacet
facet normal -0 0 -1
outer loop
vertex 0.1928381200219628 -0.00046930842247746435 0
vertex 0.1376272302062135 -0.06778694059153442 0
vertex 0.13271888660068246 -0.06551967135541034 0
endloop
endfacet
facet normal -0 0 -1
outer loop
vertex 0.1928381200219628 -0.00046930842247746435 0
vertex 0.13271888660068246 -0.06551967135541034 0
vertex 0.1277616743058065 -0.06326939481028869 0
endloop
endfacet
facet normal -0 0 -1
outer loop
vertex 0.1928381200219628 -0.00046930842247746435 0
vertex 0.1277616743058065 -0.06326939481028869 0
vertex 0.12275601665435336 -0.06103636232996104 0
endloop
endfacet
facet normal -0 0 -1
outer loop
vertex 0.1928381200219628 -0.00046930842247746435 0
vertex 0.12275601665435336 -0.06103636232996104 0
vertex 0.11770234656634827 -0.05882079815310165 0
endloop
endfacet
facet normal -0 0 -1
outer loop
vertex 0.1928381200219628 -0.00046930842247746435 0
vertex 0.11770234656634827 -0.05882079815310165 0
vertex 0.11260110644413643 -0.05662289876422204 0
endloop
endfacet
facet normal -0 0 -1
outer loop
vertex 0.1928381200219628 -0.00046930842247746435 0
vertex 0.11260110644413643 -0.05662289876422204 0
vertex 0.10745274807516073 -0.05444283226057443 0
endloop
endfacet
facet normal -0 0 -1
outer loop
vertex 0.1928381200219628 -0.00046930842247746435 0
vertex 0.10745274807516073 -0.05444283226057443 0
vertex 0.10225773254332869 -0.05228073770447898 0
endloop
endfacet
facet normal -0 0 -1
outer loop
vertex 0.1928381200219628 -0.00046930842247746435 0
vertex 0.10225773254332869 -0.05228073770447898 0
vertex 0.09701653014989892 -0.050136724460531926 0
endloop
endfacet
facet normal -0 0 -1
outer loop
vertex 0.1928381200219628 -0.00046930842247746435 0
vertex 0.09701653014989892 -0.050136724460531926 0
vertex 0.09172962034487338 -0.04801087151713402 0
endloop
endfacet
facet normal -0 0 -1
outer loop
vertex 0.1928381200219628 -0.00046930842247746435 0
vertex 0.09172962034487338 -0.04801087151713402 0
vertex 0.0863974916699503 -0.045903226791758046 0
endloop
endfacet
facet normal -0 0 -1
outer loop
vertex 0.1928381200219628 -0.00046930842247746435 0
vertex 0.0863974916699503 -0.045903226791758046 0
vertex 0.08102064171415155 -0.04381380641936071 0
endloop
endfacet
facet normal -0 0 -1
outer loop
vertex 0.1928381200219628 -0.00046930842247746435 0
vertex 0.08102064171415155 -0.04381380641936071 0
vertex 0.07559957708331813 -0.04174259402332192 0
endloop
endfacet
facet normal -0 0 -1
outer loop
vertex 0.1928381200219628 -0.00046930842247746435 0
vertex 0.07559957708331813 -0.04174259402332192 0
vertex 0.07013481338473664 -0.039689539968284025 0
endloop
endfacet
facet normal -0 0 -1
outer loop
vertex 0.1928381200219628 -0.00046930842247746435 0
vertex 0.07013481338473664 -0.039689539968284025 0
vertex 0.06462687522824505 -0.037654560594243255 0
endloop
endfacet
facet normal -0 0 -1
outer loop
vertex 0.1928381200219628 -0.00046930842247746435 0
vertex 0.06462687522824505 -0.037654560594243255 0
vertex 0.059076296245251736 -0.03563753743123382 0
endloop
endfacet
facet normal -0 0 -1
outer loop
vertex 0.1928381200219628 -0.00046930842247746435 0
vertex 0.059076296245251736 -0.03563753743123382 0
vertex 0.05348361912719415 -0.03363831639393264 0
endloop
endfacet
facet normal -0 0 -1
outer loop
vertex 0.1928381200219628 -0.00046930842247746435 0
vertex 0.05348361912719415 -0.03363831639393264 0
vertex 0.047849395685060275 -0.03165670695549969 0
endloop
endfacet
facet normal -0 0 -1
outer loop
vertex 0.1928381200219628 -0.00046930842247746435 0
vertex 0.047849395685060275 -0.03165670695549969 0
vertex 0.04217418693170523 -0.029692481299960497 0
endloop
endfacet
facet normal -0 0 -1
outer loop
vertex 0.1928381200219628 -0.00046930842247746435 0
vertex 0.04217418693170523 -0.029692481299960497 0
vertex 0.03645856318880193 -0.0277453734524293 0
endloop
endfacet
facet normal -0 0 -1
outer loop
vertex 0.1928381200219628 -0.00046930842247746435 0
vertex 0.03645856318880193 -0.0277453734524293 0
vertex 0.030703104220389278 -0.02581507838646975 0
endloop
endfacet
facet normal -0 0 -1
outer loop
vertex 0.1928381200219628 -0.00046930842247746435 0
vertex 0.030703104220389278 -0.02581507838646975 0
vertex 0.0249083993951041 -0.02390125110788189 0
endloop
endfacet
facet normal -0 0 -1
outer loop
vertex 0.1928381200219628 -0.00046930842247746435 0
vertex 0.0249083993951041 -0.02390125110788189 0
vertex 0.01907504787932164 -0.022003505714213608 0
endloop
endfacet
facet normal -0 0 -1
outer loop
vertex 0.1928381200219628 -0.00046930842247746435 0
vertex 0.01907504787932164 -0.022003505714213608 0
vertex 0.013203658863571398 -0.02012141442929402 0
endloop
endfacet
facet normal -0 0 -1
outer loop
vertex 0.1928381200219628 -0.00046930842247746435 0
vertex 0.013203658863571398 -0.02012141442929402 0
vertex 0.007294851824749271 -0.01825450661209932 0
endloop
endfacet
facet normal -0 0 -1
outer loop
vertex 0.1928381200219628 -0.00046930842247746435 0
vertex 0.007294851824749271 -0.01825450661209932 0
vertex 0.0013492568268108794 -0.016402267739276756 0
endloop
endfacet
facet normal -0 0 -1
outer loop
vertex 0.1928381200219628 -0.00046930842247746435 0
vertex 0.0013492568268108794 -0.016402267739276756 0
vertex -0.004632485137195249 -0.014564138360671806 0
endloop
endfacet
facet normal -0 0 -1
outer loop
vertex 0.1928381200219628 -0.00046930842247746435 0
vertex -0.004632485137195249 -0.014564138360671806 0
vertex -0.010649721758713234 -0.012739513027231694 0
endloop
endfacet
facet normal -0 0 -1
outer loop
vertex 0.1928381200219628 -0.00046930842247746435 0
vertex -0.010649721758713234 -0.012739513027231694 0
vertex -0.016701788979643563 -0.010927739190693724 0
endloop
endfacet
facet normal -0 0 -1
outer loop
vertex 0.1928381200219628 -0.00046930842247746435 0
vertex -0.016701788979643563 -0.010927739190693724 0
vertex -0.022788010507235883 -0.009128116074508988 0
endloop
endfacet
facet normal -0 0 -1
outer loop
vertex 0.1928381200219628 -0.00046930842247746435 0
vertex -0.022788010507235883 -0.009128116074508988 0
vertex -0.028907697274243735 -0.007339893515505402 0
endloop
endfacet
facet normal -0 0 -1
outer loop
vertex 0.1928381200219628 -0.00046930842247746435 0
vertex -0.028907697274243735 -0.007339893515505402 0
vertex -0.03506014684043234 -0.005562270775855712 0
endloop
endfacet
facet normal -0 0 -1
outer loop
vertex 0.1928381200219628 -0.00046930842247746435 0
vertex -0.03506014684043234 -0.005562270775855712 0
vertex -0.04124464273128704 -0.0037943953249922682 0
endloop
endfacet
facet normal -0 0 -1
outer loop
vertex 0.1928381200219628 -0.00046930842247746435 0
vertex -0.04124464273128704 -0.0037943953249922682 0
vertex -0.047460453709500444 -0.002035361591198055 0
endloop
endfacet
facet normal -0 0 -1
outer loop
vertex 0.1928381200219628 -0.00046930842247746435 0
vertex -0.047460453709500444 -0.002035361591198055 0
vertex -0.05370683297454 -0.0002842096827058542 0
endloop
endfacet
facet normal -0 0 -1
outer loop
vertex 0.1928381200219628 -0.00046930842247746435 0
vertex -0.05370683297454 -0.0002842096827058542 0
vertex -0.05998301728529583 0.0014600759217432077 0
endloop
endfacet
facet normal -0 0 -1
outer loop
vertex 0.1928381200219628 -0.00046930842247746435 0
vertex -0.05998301728529583 0.0014600759217432077 0
vertex -0.06628822600050027 0.003198567712791707 0
endloop
endfacet
facet normal -0 0 -1
outer loop
vertex 0.1928381200219628 -0.00046930842247746435 0
vertex -0.06628822600050027 0.003198567712791707 0
vertex -0.07262166003127314 0.004932396520560104 0
endloop
endfacet
facet normal -0 0 -1
outer loop
vertex 0.1928381200219628 -0.00046930842247746435 0
vertex -0.07262166003127314 0.004932396520560104 0
vertex -0.07898250069979879 0.0066627529145147565 0
endloop
endfacet
facet normal -0 0 -1
outer loop
vertex 0.1928381200219628 -0.00046930842247746435 0
vertex -0.07898250069979879 0.0066627529145147565 0
vertex -0.08536990849777411 0.00839088863247281 0
endloop
endfacet
facet normal -0 0 -1
outer loop
vertex 0.1928381200219628 -0.00046930842247746435 0
vertex -0.08536990849777411 0.00839088863247281 0
vertex -0.09178302173787051 0.010118118037870556 0
endloop
endfacet
facet normal -0 0 -1
outer loop
vertex 0.1928381200219628 -0.00046930842247746435 0
vertex -0.09178302173787051 0.010118118037870556 0
vertex -0.09822095509105147 0.011845819604160902 0
endloop
endfacet
facet normal -0 0 -1
outer loop
vertex 0.1928381200219628 -0.00046930842247746435 0
vertex -0.09822095509105147 0.011845819604160902 0
vertex -0.10468279800214984 0.013575437424895614 0
endloop
endfacet
facet normal -0 0 -1
outer loop
vertex 0.1928381200219628 -0.00046930842247746435 0
vertex -0.10468279800214984 0.013575437424895614 0
vertex -0.11116761297566728 0.015308482747714895 0
endloop
endfacet
facet normal -0 0 -1
outer loop
vertex 0.1928381200219628 -0.00046930842247746435 0
vertex -0.11116761297566728 0.015308482747714895 0
vertex -0.11767443372327568 0.017046535530081383 0
endloop
endfacet
facet normal -0 0 -1
outer loop
vertex 0.1928381200219628 -0.00046930842247746435 0
vertex -0.11767443372327568 0.017046535530081383 0
vertex -0.12420226316401778 0.018791246014165465 0
endloop
endfacet
facet normal -0 0 -1
outer loop
vertex 0.1928381200219628 -0.00046930842247746435 0
vertex -0.12420226316401778 0.018791246014165465 0
vertex -0.13075007126768637 0.02054433631780811 0
endloop
endfacet
facet normal -0 0 -1
outer loop
vertex 0.1928381200219628 -0.00046930842247746435 0
vertex -0.13075007126768637 0.02054433631780811 0
vertex -0.1373167927313298 0.0223076020379469 0
endloop
endfacet
facet normal -0 0 -1
outer loop
vertex 0.1928381200219628 -0.00046930842247746435 0
vertex -0.1373167927313298 0.0223076020379469 0
vertex -0.14390132447827714 0.02408291386229125 0
endloop
endfacet
facet normal -0 0 -1
outer loop
vertex 0.1928381200219628 -0.00046930842247746435 0
vertex -0.14390132447827714 0.02408291386229125 0
vertex -0.15050252296850958 0.025872219184357302 0
endloop
endfacet
facet normal -0 0 -1
outer loop
vertex 0.1928381200219628 -0.00046930842247746435 0
vertex -0.15050252296850958 0.025872219184357302 0
vertex -0.15711920130861765 0.027677543716228464 0
endloop
endfacet
facet normal -0 0 -1
outer loop
vertex 0.1928381200219628 -0.00046930842247746435 0
vertex -0.15711920130861765 0.027677543716228464 0
vertex -0.1637501261489801 0.02950099309257509 0
endloop
endfacet
facet normal -0 0 -1
outer loop
vertex 0.1928381200219628 -0.00046930842247746435 0
vertex -0.1637501261489801 0.02950099309257509 0
vertex -0.1703940143551921 0.03134475445854145 0
endloop
endfacet
facet normal -0 0 -1
outer loop
vertex 0.1928381200219628 -0.00046930842247746435 0
vertex -0.1703940143551921 0.03134475445854145 0
vertex -0.17704952944014934 0.03321109803308801 0
endloop
endfacet
facet normal -0 0 -1
outer loop
vertex 0.1928381200219628 -0.00046930842247746435 0
vertex -0.17704952944014934 0.03321109803308801 0
vertex -0.18371527774257132 0.03510237863824009 0
endloop
endfacet
facet normal -0 0 -1
outer loop
vertex 0.1928381200219628 -0.00046930842247746435 0
vertex -0.18371527774257132 0.03510237863824009 0
vertex -0.19038980433712627 0.03702103718344525 0
endloop
endfacet
facet normal -0 0 -1
outer loop
vertex 0.1928381200219628 -0.00046930842247746435 0
vertex -0.19038980433712627 0.03702103718344525 0
vertex -0.19707158866070673 0.03896960209285519 0
endloop
endfacet
facet normal -0 0 -1
outer loop
vertex 0.1928381200219628 -0.00046930842247746435 0
vertex -0.19707158866070673 0.03896960209285519 0
vertex -0.20375903983880406 0.04095069066182502 0
endloop
endfacet
facet normal -0 0 -1
outer loop
vertex 0.1928381200219628 -0.00046930842247746435 0
vertex -0.20375903983880406 0.04095069066182502 0
vertex -0.21045049169536184 0.0429670103272449 0
endloop
endfacet
facet normal -0 0 -1
outer loop
vertex 0.1928381200219628 -0.00046930842247746435 0
vertex -0.21045049169536184 0.0429670103272449 0
vertex -0.2171441974289469 0.04502135983447442 0
endloop
endfacet
facet normal -0 0 -1
outer loop
vertex 0.1928381200219628 -0.00046930842247746435 0
vertex -0.2171441974289469 0.04502135983447442 0
vertex -0.22383832393758377 0.04711663028162566 0
endloop
endfacet
facet normal -0 0 -1
outer loop
vertex 0.1928381200219628 -0.00046930842247746435 0
vertex -0.22383832393758377 0.04711663028162566 0
vertex -0.23053094577417582 0.04925580601972322 0
endloop
endfacet
facet normal -0 0 -1
outer loop
vertex 0.1928381200219628 -0.00046930842247746435 0
vertex -0.23053094577417582 0.04925580601972322 0
vertex -0.2372200387140807 0.051441965384845995 0
endloop
endfacet
facet normal -0 0 -1
outer loop
vertex 0.1928381200219628 -0.00046930842247746435 0
vertex -0.2372200387140807 0.051441965384845995 0
vertex -0.24390347291616316 0.05367828123570391 0
endloop
endfacet
facet normal -0 0 -1
outer loop
vertex 0.1928381200219628 -0.00046930842247746435 0
vertex -0.24390347291616316 0.05367828123570391 0
vertex -0.2505790056585098 0.05596802126721953 0
endloop
endfacet
facet normal -0 0 -1
outer loop
vertex 0.1928381200219628 -0.00046930842247746435 0
vertex -0.2505790056585098 0.05596802126721953 0
vertex -0.25724427363001845 0.05831454806754373 0
endloop
endfacet
facet normal -0 0 -1
outer loop
vertex 0.1928381200219628 -0.00046930842247746435 0
vertex -0.25724427363001845 0.05831454806754373 0
vertex -0.26389678475926137 0.06072131888252917 0
endloop
endfacet
facet normal -0 0 -1
outer loop
vertex 0.1928381200219628 -0.00046930842247746435 0
vertex -0.26389678475926137 0.06072131888252917 0
vertex -0.2705339095624302 0.06319188504799471 0
endloop
endfacet
facet normal -0 0 -1
outer loop
vertex 0.1928381200219628 -0.00046930842247746435 0
vertex -0.2705339095624302 0.06319188504799471 0
vertex -0.2771528719928223 0.06572989104612774 0
endloop
endfacet
facet normal -0 0 -1
outer loop
vertex 0.1928381200219628 -0.00046930842247746435 0
vertex -0.2771528719928223 0.06572989104612774 0
vertex -0.28375073977527676 0.06833907313808245 0
endloop
endfacet
facet normal -0 0 -1
outer loop
vertex 0.1928381200219628 -0.00046930842247746435 0
vertex -0.28375073977527676 0.06833907313808245 0
vertex -0.2903244142102591 0.0710232575202146 0
endloop
endfacet
facet normal -0 0 -1
outer loop
vertex 0.1928381200219628 -0.00046930842247746435 0
vertex -0.2903244142102591 0.0710232575202146 0
vertex -0.2968706194339723 0.0737863579464598 0
endloop
endfacet
facet normal -0 0 -1
outer loop
vertex 0.1928381200219628 -0.00046930842247746435 0
vertex -0.2968706194339723 0.0737863579464598 0
vertex -0.30338589112302095 0.07663237275409081 0
endloop
endfacet
facet normal -0 0 -1
outer loop
vertex 0.1928381200219628 -0.00046930842247746435 0
vertex -0.30338589112302095 0.07663237275409081 0
vertex -0.3098665646348277 0.07956538122449415 0
endloop
endfacet
facet normal -0 0 -1
outer loop
vertex 0.1928381200219628 -0.00046930842247746435 0
vertex -0.3098665646348277 0.07956538122449415 0
vertex -0.3163087625782702 0.0825895392046761 0
endloop
endfacet
facet normal -0 0 -1
outer loop
vertex 0.1928381200219628 -0.00046930842247746435 0
vertex -0.3163087625782702 0.0825895392046761 0
vertex -0.3227083818129708 0.08570907390897843 0
endloop
endfacet
facet normal -0 0 -1
outer loop
vertex 0.1928381200219628 -0.00046930842247746435 0
vertex -0.3227083818129708 0.08570907390897843 0
vertex -0.329061079880416 0.08892827781394784 0
endloop
endfacet
facet normal -0 0 -1
outer loop
vertex 0.1928381200219628 -0.00046930842247746435 0
vertex -0.329061079880416 0.08892827781394784 0
vertex -0.33536226087569776 0.09225150155251793 0
endloop
endfacet
facet normal -0 0 -1
outer loop
vertex 0.1928381200219628 -0.00046930842247746435 0
vertex -0.33536226087569776 0.09225150155251793 0
vertex -0.3416070607752874 0.09568314570664863 0
endloop
endfacet
facet normal -0 0 -1
outer loop
vertex 0.1928381200219628 -0.00046930842247746435 0
vertex -0.3416070607752874 0.09568314570664863 0
vertex -0.3477903322439672 0.09922765139039877 0
endloop
endfacet
facet normal -0 0 -1
outer loop
vertex 0.1928381200219628 -0.00046930842247746435 0
vertex -0.3477903322439672 0.09922765139039877 0
vertex -0.35390662895299585 0.1028894895081464 0
endloop
endfacet
facet normal -0 0 -1
outer loop
vertex 0.1928381200219628 -0.00046930842247746435 0
vertex -0.35390662895299585 0.1028894895081464 0
vertex -0.35995018945190504 0.10667314856541991 0
endloop
endfacet
facet normal -0 0 -1
outer loop
vertex 0.1928381200219628 -0.00046930842247746435 0
vertex -0.35995018945190504 0.10667314856541991 0
vertex -0.36591492064814646 0.11058312090267224 0
endloop
endfacet
facet normal -0 0 -1
outer loop
vertex 0.1928381200219628 -0.00046930842247746435 0
vertex -0.36591492064814646 0.11058312090267224 0
vertex -0.37179438096227563 0.11462388721546704 0
endloop
endfacet
facet normal -0 0 -1
outer loop
vertex 0.1928381200219628 -0.00046930842247746435 0
vertex -0.37179438096227563 0.11462388721546704 0
vertex -0.3775817632416281 0.11879989921812202 0
endloop
endfacet
facet normal -0 0 -1
outer loop
vertex 0.1928381200219628 -0.00046930842247746435 0
vertex -0.3775817632416281 0.11879989921812202 0
vertex -0.3832698775326496 0.12311556030208183 0
endloop
endfacet
facet normal -0 0 -1
outer loop
vertex 0.1928381200219628 -0.00046930842247746435 0
vertex -0.3832698775326496 0.12311556030208183 0
vertex -0.3888511338313214 0.12757520403540815 0
endloop
endfacet
facet normal -0 0 -1
outer loop
vertex 0.1928381200219628 -0.00046930842247746435 0
vertex -0.3888511338313214 0.12757520403540815 0
vertex -0.39431752495262345 0.13218307034608068 0
endloop
endfacet
facet normal -0 0 -1
outer loop
vertex 0.1928381200219628 -0.00046930842247746435 0
vertex -0.39431752495262345 0.13218307034608068 0
vertex -0.3996606096837939 0.13694327922961994 0
endloop
endfacet
facet normal -0 0 -1
outer loop
vertex 0.1928381200219628 -0.00046930842247746435 0
vertex -0.3996606096837939 0.13694327922961994 0
vertex -0.4048714964123855 0.1418598018212715 0
endloop
endfacet
facet normal -0 0 -1
outer loop
vertex 0.1928381200219628 -0.00046930842247746435 0
vertex -0.4048714964123855 0.1418598018212715 0
vertex -0.40994082744883864 0.14693642867506096 0
endloop
endfacet
facet normal -0 0 -1
outer loop
vertex 0.1928381200219628 -0.00046930842247746435 0
vertex -0.40994082744883864 0.14693642867506096 0
vertex -0.41485876429449503 0.1521767350969443 0
endloop
endfacet
facet normal -0 0 -1
outer loop
vertex 0.1928381200219628 -0.00046930842247746435 0
vertex -0.41485876429449503 0.1521767350969443 0
vertex -0.41961497413964916 0.15758404338759385 0
endloop
endfacet
facet normal -0 0 -1
outer loop
vertex 0.1928381200219628 -0.00046930842247746435 0
vertex -0.41961497413964916 0.15758404338759385 0
vertex -0.4241986179122509 0.16316138186269113 0
endloop
endfacet
facet normal -0 0 -1
outer loop
vertex 0.1928381200219628 -0.00046930842247746435 0
vertex -0.4241986179122509 0.16316138186269113 0
vertex -0.4285983402360358 0.168911440535616 0
endloop
endfacet
facet normal -0 0 -1
outer loop
vertex 0.1928381200219628 -0.00046930842247746435 0
vertex -0.4285983402360358 0.168911440535616 0
vertex -0.4328022616968866 0.17483652336985886 0
endloop
endfacet
facet normal -0 0 -1
outer loop
vertex 0.1928381200219628 -0.00046930842247746435 0
vertex -0.4328022616968866 0.17483652336985886 0
vertex -0.4367979738576834 0.1809384970371025 0
endloop
endfacet
facet normal -0 0 -1
outer loop
vertex 0.1928381200219628 -0.00046930842247746435 0
vertex -0.4367979738576834 0.1809384970371025 0
vertex -0.4405725375042078 0.18721873615253046 0
endloop
endfacet
facet normal -0 0 -1
outer loop
vertex 0.1928381200219628 -0.00046930842247746435 0
vertex -0.4405725375042078 0.18721873615253046 0
vertex -0.44411248464710057 0.19367806500234422 0
endloop
endfacet
facet normal -0 0 -1
outer loop
vertex 0.1928381200219628 -0.00046930842247746435 0
vertex -0.44411248464710057 0.19367806500234422 0
vertex -0.44740382484648905 0.20031669583051695 0
endloop
endfacet
facet normal -0 0 -1
outer loop
vertex 0.1928381200219628 -0.00046930842247746435 0
vertex -0.44740382484648905 0.20031669583051695 0
vertex -0.4504320564655543 0.2071341638132752 0
endloop
endfacet
facet normal -0 0 -1
outer loop
vertex 0.1928381200219628 -0.00046930842247746435 0
vertex -0.4504320564655543 0.2071341638132752 0
vertex -0.45318218349561484 0.214129258921362 0
endloop
endfacet
facet normal -0 0 -1
outer loop
vertex 0.1928381200219628 -0.00046930842247746435 0
vertex -0.45318218349561484 0.214129258921362 0
vertex -0.4556387386266283 0.22129995495242288 0
endloop
endfacet
facet normal -0 0 -1
outer loop
vertex 0.1928381200219628 -0.00046930842247746435 0
vertex -0.4556387386266283 0.22129995495242288 0
vertex -0.45778581326143286 0.22864333610924284 0
endloop
endfacet
facet normal -0 0 -1
outer loop
vertex 0.1928381200219628 -0.00046930842247746435 0
vertex -0.45778581326143286 0.22864333610924284 0
vertex -0.4596070951874249 0.2361555216042847 0
endloop
endfacet
facet normal -0 0 -1
outer loop
vertex 0.1928381200219628 -0.00046930842247746435 0
vertex -0.4596070951874249 0.2361555216042847 0
vertex -0.4610859146232173 0.24383158888686812 0
endloop
endfacet
facet normal -0 0 -1
outer loop
vertex 0.1928381200219628 -0.00046930842247746435 0
vertex -0.4610859146232173 0.24383158888686812 0
vertex -0.4622052993474977 0.2516654962158974 0
endloop
endfacet
facet normal -0 0 -1
outer loop
vertex 0.1928381200219628 -0.00046930842247746435 0
vertex -0.4622052993474977 0.2516654962158974 0
vertex -0.4629480395898996 0.2596500054373261 0
endloop
endfacet
facet normal -0 0 -1
outer loop
vertex 0.1928381200219628 -0.00046930842247746435 0
vertex -0.4629480395898996 0.2596500054373261 0
vertex -0.4632967633161806 0.2677766059699474 0
endloop
endfacet
facet normal -0 0 -1
outer loop
vertex 0.1928381200219628 -0.00046930842247746435 0
vertex -0.4632967633161806 0.2677766059699474 0
vertex -0.4632340224692739 0.27603544115347467 0
endloop
endfacet
facet normal -0 0 -1
outer loop
vertex 0.1928381200219628 -0.00046930842247746435 0
vertex -0.4632340224692739 0.27603544115347467 0
vertex -0.46274239063079564 0.28441523826626375 0
endloop
endfacet
facet normal -0 0 -1
outer loop
vertex 0.1928381200219628 -0.00046930842247746435 0
vertex -0.46274239063079564 0.28441523826626375 0
vertex -0.461804572441455 0.2929032436726648 0
endloop
endfacet
facet normal -0 0 -1
outer loop
vertex 0.1928381200219628 -0.00046930842247746435 0
vertex -0.461804572441455 0.2929032436726648 0
vertex -0.4604035249610753 0.3014851647073171 0
endloop
endfacet
facet normal -0 0 -1
outer loop
vertex 0.1928381200219628 -0.00046930842247746435 0
vertex -0.4604035249610753 0.3014851647073171 0
vertex -0.4585225909575814 0.31014512004017697 0
endloop
endfacet
facet normal -0 0 -1
outer loop
vertex 0.1928381200219628 -0.00046930842247746435 0
vertex -0.4585225909575814 0.31014512004017697 0
vertex -0.4561456438882418 0.31886560038534795 0
endloop
endfacet
facet normal -0 0 -1
outer loop
vertex 0.1928381200219628 -0.00046930842247746435 0
vertex -0.4561456438882418 0.31886560038534795 0
vertex -0.453257244075524 0.32762744151171896 0
endloop
endfacet
facet normal -0 0 -1
outer loop
vertex 0.1928381200219628 -0.00046930842247746435 0
vertex -0.453257244075524 0.32762744151171896 0
vertex -0.44984280528534576 0.33640981157615785 0
endloop
endfacet
facet normal -0 0 -1
outer loop
vertex 0.1928381200219628 -0.00046930842247746435 0
vertex -0.44984280528534576 0.33640981157615785 0
vertex -0.4458887705900321 0.3451902148222425 0
endloop
endfacet
facet normal -0 0 -1
outer loop
vertex 0.1928381200219628 -0.00046930842247746435 0
vertex -0.4458887705900321 0.3451902148222425 0
vertex -0.44138279604649827 0.3539445136607983 0
endloop
endfacet
facet normal -0 0 -1
outer loop
vertex 0.1928381200219628 -0.00046930842247746435 0
vertex -0.44138279604649827 0.3539445136607983 0
vertex -0.43631394034867216 0.36264697106445687 0
endloop
endfacet
facet normal -0 0 -1
outer loop
vertex 0.1928381200219628 -0.00046930842247746435 0
vertex -0.43631394034867216 0.36264697106445687 0
vertex -0.43067285823068285 0.37127031505944325 0
endloop
endfacet
facet normal -0 0 -1
outer loop
vertex 0.1928381200219628 -0.00046930842247746435 0
vertex -0.43067285823068285 0.37127031505944325 0
vertex -0.42445199501483954 0.37978582687723494 0
endloop
endfacet
facet normal -0 0 -1
outer loop
vertex 0.1928381200219628 -0.00046930842247746435 0
vertex -0.42445199501483954 0.37978582687723494 0
vertex -0.41764577932898705 0.3881634540317814 0
endloop
endfacet
facet normal -0 0 -1
outer loop
vertex 0.1928381200219628 -0.00046930842247746435 0
vertex -0.41764577932898705 0.3881634540317814 0
vertex -0.41025081067645547 0.39637194921216246 0
endloop
endfacet
facet normal -0 0 -1
outer loop
vertex 0.1928381200219628 -0.00046930842247746435 0
vertex -0.41025081067645547 0.39637194921216246 0
vertex -0.4022660382450426 0.40437903542625236 0
endloop
endfacet
facet normal -0 0 -1
outer loop
vertex 0.1928381200219628 -0.00046930842247746435 0
vertex -0.4022660382450426 0.40437903542625236 0
vertex -0.3936929271068113 0.41215159730209927 0
endloop
endfacet
facet normal -0 0 -1
outer loop
vertex 0.1928381200219628 -0.00046930842247746435 0
vertex -0.3936929271068113 0.41215159730209927 0
vertex -0.38453560780565604 0.4196558978581201 0
endloop
endfacet
facet normal -0 0 -1
outer loop
vertex 0.1928381200219628 -0.00046930842247746435 0
vertex -0.38453560780565604 0.4196558978581201 0
vertex -0.37480100527170085 0.42685781940294454 0
endloop
endfacet
facet normal -0 0 -1
outer loop
vertex 0.1928381200219628 -0.00046930842247746435 0
vertex -0.37480100527170085 0.42685781940294454 0
vertex -0.3644989430559608 0.43372312653720113 0
endloop
endfacet
facet normal -0 0 -1
outer loop
vertex 0.1928381200219628 -0.00046930842247746435 0
vertex -0.3644989430559608 0.43372312653720113 0
vertex -0.3536422190579412 0.44021774852322754 0
endloop
endfacet
facet normal -0 0 -1
outer loop
vertex 0.1928381200219628 -0.00046930842247746435 0
vertex -0.3536422190579412 0.44021774852322754 0
vertex -0.3422466492314765 0.44630807758886687 0
endloop
endfacet
facet normal -0 0 -1
outer loop
vertex 0.1928381200219628 -0.00046930842247746435 0
vertex -0.3422466492314765 0.44630807758886687 0
vertex -0.33033107620380925 0.45196127906519856 0
endloop
endfacet
facet normal -0 0 -1
outer loop
vertex 0.1928381200219628 -0.00046930842247746435 0
vertex -0.33033107620380925 0.45196127906519856 0
vertex -0.31791734032727614 0.4571456086541474 0
endloop
endfacet
facet normal -0 0 -1
outer loop
vertex 0.1928381200219628 -0.00046930842247746435 0
vertex -0.31791734032727614 0.4571456086541474 0
vertex -0.305030211393201 0.461830731609636 0
endloop
endfacet
facet normal -0 0 -1
outer loop
vertex 0.1928381200219628 -0.00046930842247746435 0
vertex -0.305030211393201 0.461830731609636 0
vertex -0.2916972800579858 0.4659880382233408 0
endloop
endfacet
facet normal -0 0 -1
outer loop
vertex 0.1928381200219628 -0.00046930842247746435 0
vertex -0.2916972800579858 0.4659880382233408 0
vertex -0.2779488089395369 0.4695909497582872 0
endloop
endfacet
facet normal -0 0 -1
outer loop
vertex 0.1928381200219628 -0.00046930842247746435 0
vertex -0.2779488089395369 0.4695909497582872 0
vertex -0.2638175443095976 0.4726152088909501 0
endloop
endfacet
facet normal -0 0 -1
outer loop
vertex 0.1928381200219628 -0.00046930842247746435 0
vertex -0.2638175443095976 0.4726152088909501 0
vertex -0.24933849030073257 0.47503914881944403 0
endloop
endfacet
facet normal -0 0 -1
outer loop
vertex 0.1928381200219628 -0.00046930842247746435 0
vertex -0.24933849030073257 0.47503914881944403 0
vertex -0.23454864852857013 0.4768439354785178 0
endloop
endfacet
facet normal -0 0 -1
outer loop
vertex 0.1928381200219628 -0.00046930842247746435 0
vertex -0.23454864852857013 0.4768439354785178 0
vertex -0.2194867269616954 0.4780137777696575 0
endloop
endfacet
facet normal -0 0 -1
outer loop
vertex 0.1928381200219628 -0.00046930842247746435 0
vertex -0.2194867269616954 0.4780137777696575 0
vertex -0.20419282271509842 0.4785361013560562 0
endloop
endfacet
facet normal -0 0 -1
outer loop
vertex 0.1928381200219628 -0.00046930842247746435 0
vertex -0.20419282271509842 0.4785361013560562 0
vertex -0.18870808416252782 0.47840168236825953 0
endloop
endfacet
facet normal -0 0 -1
outer loop
vertex 0.1928381200219628 -0.00046930842247746435 0
vertex -0.18870808416252782 0.47840168236825953 0
vertex -0.1730743583277886 0.4776047382897264 0
endloop
endfacet
facet normal -0 0 -1
outer loop
vertex 0.1928381200219628 -0.00046930842247746435 0
vertex -0.1730743583277886 0.4776047382897264 0
vertex -0.15733382990060973 0.4761429743085487 0
endloop
endfacet
facet normal -0 0 -1
outer loop
vertex 0.1928381200219628 -0.00046930842247746435 0
vertex -0.15733382990060973 0.4761429743085487 0
vertex -0.14152865841322432 0.4740175844935134 0
endloop
endfacet
facet normal -0 0 -1
outer loop
vertex 0.1928381200219628 -0.00046930842247746435 0
vertex -0.14152865841322432 0.4740175844935134 0
vertex -0.12570062010232816 0.4712332082382762 0
endloop
endfacet
facet normal -0 0 -1
outer loop
vertex 0.1928381200219628 -0.00046930842247746435 0
vertex -0.12570062010232816 0.4712332082382762 0
vertex -0.10989076077013285 0.4677978434749831 0
endloop
endfacet
facet normal -0 0 -1
outer loop
vertex 0.1928381200219628 -0.00046930842247746435 0
vertex -0.10989076077013285 0.4677978434749831 0
vertex -0.09413906555966098 0.4637227191485429 0
endloop
endfacet
facet normal -0 0 -1
outer loop
vertex 0.1928381200219628 -0.00046930842247746435 0
vertex -0.09413906555966098 0.4637227191485429 0
vertex -0.07848415099334766 0.4590221303293829 0
endloop
endfacet
facet normal -0 0 -1
outer loop
vertex 0.1928381200219628 -0.00046930842247746435 0
vertex -0.07848415099334766 0.4590221303293829 0
vertex -0.06296298391761557 0.4537132400962959 0
endloop
endfacet
facet normal -0 0 -1
outer loop
vertex 0.1928381200219628 -0.00046930842247746435 0
vertex -0.06296298391761557 0.4537132400962959 0
vertex -0.04761063118166636 0.4478158529196392 0
endloop
endfacet
facet normal -0 0 -1
outer loop
vertex 0.1928381200219628 -0.00046930842247746435 0
vertex -0.04761063118166636 0.4478158529196392 0
vertex -0.03246004299189603 0.44135216470451777 0
endloop
endfacet
facet normal -0 0 -1
outer loop
vertex 0.1928381200219628 -0.00046930842247746435 0
vertex -0.03246004299189603 0.44135216470451777 0
vertex -0.017541871960699923 0.43434649490796146 0
endloop
endfacet
facet normal -0 0 -1
outer loop
vertex 0.1928381200219628 -0.00046930842247746435 0
vertex -0.017541871960699923 0.43434649490796146 0
vertex -0.0028843289456923493 0.4268250062258529 0
endloop
endfacet
facet normal -0 0 -1
outer loop
vertex 0.1928381200219628 -0.00046930842247746435 0
vertex -0.0028843289456923493 0.4268250062258529 0
vertex 0.01148692411444105 0.4188154172642501 0
endloop
endfacet
facet normal -0 0 -1
outer loop
vertex 0.1928381200219628 -0.00046930842247746435 0
vertex 0.01148692411444105 0.4188154172642501 0
vertex 0.025548844989348757 0.41034671338171474 0
endloop
endfacet
facet normal -0 0 -1
outer loop
vertex 0.1928381200219628 -0.00046930842247746435 0
vertex 0.025548844989348757 0.41034671338171474 0
vertex 0.039281046936437525 0.40144886053510254 0
endloop
endfacet
facet normal -0 0 -1
outer loop
vertex 0.1928381200219628 -0.00046930842247746435 0
vertex 0.039281046936437525 0.40144886053510254 0
vertex 0.05266580147511954 0.39215252650497345 0
endloop
endfacet
facet normal -0 0 -1
outer loop
vertex 0.1928381200219628 -0.00046930842247746435 0
vertex 0.05266580147511954 0.39215252650497345 0
vertex 0.06568801068637903 0.38248881334413165 0
endloop
endfacet
facet normal -0 0 -1
outer loop
vertex 0.1928381200219628 -0.00046930842247746435 0
vertex 0.06568801068637903 0.38248881334413165 0
vertex 0.07833515197408146 0.37248900430967946 0
endloop
endfacet
facet normal -0 0 -1
outer loop
vertex 0.1928381200219628 -0.00046930842247746435 0
vertex 0.07833515197408146 0.37248900430967946 0
vertex 0.09059719851051724 0.3621843279303607 0
endloop
endfacet
facet normal -0 0 -1
outer loop
vertex 0.1928381200219628 -0.00046930842247746435 0
vertex 0.09059719851051724 0.3621843279303607 0
vertex 0.10246651875972078 0.351605741249601 0
endloop
endfacet
facet normal -0 0 -1
outer loop
vertex 0.1928381200219628 -0.00046930842247746435 0
vertex 0.10246651875972078 0.351605741249601 0
vertex 0.11393775853669885 0.3407837336905139 0
endloop
endfacet
facet normal -0 0 -1
outer loop
vertex 0.1928381200219628 -0.00046930842247746435 0
vertex 0.11393775853669885 0.3407837336905139 0
vertex 0.12500770903048852 0.32974815242870115 0
endloop
endfacet
facet normal -0 0 -1
outer loop
vertex 0.1928381200219628 -0.00046930842247746435 0
vertex 0.12500770903048852 0.32974815242870115 0
vertex 0.1356751641073757 0.3185280496448942 0
endloop
endfacet
facet normal -0 0 -1
outer loop
vertex 0.1928381200219628 -0.00046930842247746435 0
vertex 0.1356751641073757 0.3185280496448942 0
vertex 0.14594077003224742 0.30715155157160506 0
endloop
endfacet
facet normal -0 0 -1
outer loop
vertex 0.1928381200219628 -0.00046930842247746435 0
vertex 0.14594077003224742 0.30715155157160506 0
vertex 0.15580687051571046 0.2956457488517789 0
endloop
endfacet
facet normal -0 0 -1
outer loop
vertex 0.1928381200219628 -0.00046930842247746435 0
vertex 0.15580687051571046 0.2956457488517789 0
vertex 0.16527734972659525 0.2840366073957067 0
endloop
endfacet
facet normal -0 0 -1
outer loop
vertex 0.1928381200219628 -0.00046930842247746435 0
vertex 0.16527734972659525 0.2840366073957067 0
vertex 0.17435747561721568 0.2723488986550545 0
endloop
endfacet
facet normal -0 0 -1
outer loop
vertex 0.1928381200219628 -0.00046930842247746435 0
vertex 0.17435747561721568 0.2723488986550545 0
vertex 0.18305374560421858 0.2606061480276285 0
endloop
endfacet
facet normal -0 0 -1
outer loop
vertex 0.1928381200219628 -0.00046930842247746435 0
vertex 0.18305374560421858 0.2606061480276285 0
vertex 0.1913737363414687 0.24883059995936782 0
endloop
endfacet
facet normal -0 0 -1
outer loop
vertex 0.1928381200219628 -0.00046930842247746435 0
vertex 0.1913737363414687 0.24883059995936782 0
vertex 0.19932595902186453 0.2370431982158214 0
endloop
endfacet
facet normal -0 0 -1
outer loop
vertex 0.1928381200219628 -0.00046930842247746435 0
vertex 0.19932595902186453 0.2370431982158214 0
vertex 0.2069197213591417 0.22526357974796407 0
endloop
endfacet
facet normal -0 0 -1
outer loop
vertex 0.1928381200219628 -0.00046930842247746435 0
vertex 0.2069197213591417 0.22526357974796407 0
vertex 0.21416499713392578 0.21351008057013107 0
endloop
endfacet
facet normal -0 0 -1
outer loop
vertex 0.1928381200219628 -0.00046930842247746435 0
vertex 0.21416499713392578 0.21351008057013107 0
vertex 0.22107230394417576 0.20179975209452639 0
endloop
endfacet
facet normal -0 0 -1
outer loop
vertex 0.1928381200219628 -0.00046930842247746435 0
vertex 0.22107230394417576 0.20179975209452639 0
vertex 0.22765258958105616 0.19014838642080872 0
endloop
endfacet
facet normal -0 0 -1
outer loop
vertex 0.1928381200219628 -0.00046930842247746435 0
vertex 0.22765258958105616 0.19014838642080872 0
vertex 0.23391712725833602 0.17857054915455348 0
endloop
endfacet
facet normal -0 0 -1
outer loop
vertex 0.1928381200219628 -0.00046930842247746435 0
vertex 0.23391712725833602 0.17857054915455348 0
vertex 0.23987741975673504 0.16707961841947064 0
endloop
endfacet
facet normal -0 0 -1
outer loop
vertex 0.1928381200219628 -0.00046930842247746435 0
vertex 0.23987741975673504 0.16707961841947064 0
vertex 0.24554511240359905 0.15568782883013435 0
endloop
endfacet
facet normal -0 0 -1
outer loop
vertex 0.1928381200219628 -0.00046930842247746435 0
vertex 0.24554511240359905 0.15568782883013435 0
vertex 0.2509319146916071 0.14440631930036896 0
endloop
endfacet
facet normal -0 0 -1
outer loop
vertex 0.1928381200219628 -0.00046930842247746435 0
vertex 0.2509319146916071 0.14440631930036896 0
vertex 0.25604953024621946 0.13324518367367955 0
endloop
endfacet
facet normal -0 0 -1
outer loop
vertex 0.1928381200219628 -0.00046930842247746435 0
vertex 0.25604953024621946 0.13324518367367955 0
vertex 0.26090959477824016 0.1222135232732401 0
endloop
endfacet
facet normal -0 0 -1
outer loop
vertex 0.1928381200219628 -0.00046930842247746435 0
vertex 0.26090959477824016 0.1222135232732401 0
vertex 0.26552362160310816 0.11131950057746887 0
endloop
endfacet
facet normal -0 0 -1
outer loop
vertex 0.1928381200219628 -0.00046930842247746435 0
vertex 0.26552362160310816 0.11131950057746887 0
vertex 0.2699029542700595 0.10057039333137115 0
endloop
endfacet
facet normal -0 0 -1
outer loop
vertex 0.1928381200219628 -0.00046930842247746435 0
vertex 0.2699029542700595 0.10057039333137115 0
vertex 0.2740587258199966 0.08997264850211517 0
endloop
endfacet
facet normal -0 0 -1
outer loop
vertex 0.1928381200219628 -0.00046930842247746435 0
vertex 0.2740587258199966 0.08997264850211517 0
vertex 0.2780018241786147 0.07953193557887214 0
endloop
endfacet
facet normal -0 0 -1
outer loop
vertex 0.1928381200219628 -0.00046930842247746435 0
vertex 0.2780018241786147 0.07953193557887214 0
vertex 0.28174286318909825 0.06925319880112946 0
endloop
endfacet
facet normal -0 0 -1
outer loop
vertex 0.1928381200219628 -0.00046930842247746435 0
vertex 0.28174286318909825 0.06925319880112946 0
vertex 0.2852921587946917 0.059140707976213944 0
endloop
endfacet
facet normal -0 0 -1
outer loop
vertex 0.1928381200219628 -0.00046930842247746435 0
vertex 0.2852921587946917 0.059140707976213944 0
vertex 0.2886597098940267 0.049198107615577 0
endloop
endfacet
facet normal -0 0 -1
outer loop
vertex 0.1928381200219628 -0.00046930842247746435 0
vertex 0.2886597098940267 0.049198107615577 0
vertex 0.2918551834097597 0.03942846418060472 0
endloop
endfacet
facet normal -0 0 -1
outer loop
vertex 0.1928381200219628 -0.00046930842247746435 0
vertex 0.2918551834097597 0.03942846418060472 0
vertex 0.2948879031325917 0.029834311282659842 0
endloop
endfacet
facet normal -0 0 -1
outer loop
vertex 0.1928381200219628 -0.00046930842247746435 0
vertex 0.2948879031325917 0.029834311282659842 0
vertex 0.2977668419269627 0.02041769272904953 0
endloop
endfacet
facet normal -0 0 -1
outer loop
vertex 0.1928381200219628 -0.00046930842247746435 0
vertex 0.2977668419269627 0.02041769272904953 0
vertex 0.30050061691072205 0.011180203347155804 0
endloop
endfacet
facet normal -0 0 -1
outer loop
vertex 0.1928381200219628 -0.00046930842247746435 0
vertex 0.30050061691072205 0.011180203347155804 0
vertex 0.3030974872480663 0.0021230275535613907 0
endloop
endfacet
facet normal -0 0 -1
outer loop
vertex 0.1928381200219628 -0.00046930842247746435 0
vertex 0.3030974872480663 0.0021230275535613907 0
vertex 0.305565354222372 -0.006753024335866331 0
endloop
endfacet
facet normal -0 0 -1
outer loop
vertex 0.1928381200219628 -0.00046930842247746435 0
vertex 0.305565354222372 -0.006753024335866331 0
vertex 0.30791176328270936 -0.015447482034718213 0
endloop
endfacet
facet normal -0 0 -1
outer loop
vertex 0.1928381200219628 -0.00046930842247746435 0
vertex 0.30791176328270936 -0.015447482034718213 0
vertex 0.31014390778437795 -0.02396018341354683 0
endloop
endfacet
facet normal -0 0 -1
outer loop
vertex 0.1928381200219628 -0.00046930842247746435 0
vertex 0.31014390778437795 -0.02396018341354683 0
vertex 0.31226863416946604 -0.03229124477010348 0
endloop
endfacet
facet normal -0 0 -1
outer loop
vertex 0.1928381200219628 -0.00046930842247746435 0
vertex 0.31226863416946604 -0.03229124477010348 0
vertex 0.3142924483579336 -0.04044103317371302 0
endloop
endfacet
facet normal -0 0 -1
outer loop
vertex 0.1928381200219628 -0.00046930842247746435 0
vertex 0.3142924483579336 -0.04044103317371302 0
vertex 0.316221523142925 -0.04841014080562345 0
endloop
endfacet
facet normal -0 0 -1
outer loop
vertex 0.1928381200219628 -0.00046930842247746435 0
vertex 0.316221523142925 -0.04841014080562345 0
vertex 0.318061706405792 -0.056199361210139215 0
endloop
endfacet
facet normal -0 0 -1
outer loop
vertex 0.1928381200219628 -0.00046930842247746435 0
vertex 0.318061706405792 -0.056199361210139215 0
vertex 0.31981852998661 -0.06380966736652577 0
endloop
endfacet
facet normal -0 0 -1
outer loop
vertex 0.1928381200219628 -0.00046930842247746435 0
vertex 0.31981852998661 -0.06380966736652577 0
vertex 0.3214972190647721 -0.07124219148870099 0
endloop
endfacet
facet normal -0 0 -1
outer loop
vertex 0.1928381200219628 -0.00046930842247746435 0
vertex 0.3214972190647721 -0.07124219148870099 0
vertex 0.3231027019215591 -0.0784982064583274 0
endloop
endfacet
facet normal -0 0 -1
outer loop
vertex 0.1928381200219628 -0.00046930842247746435 0
vertex 0.3231027019215591 -0.0784982064583274 0
vertex 0.32463961997242907 -0.08557910879678149 0
endloop
endfacet
facet normal -0 0 -1
outer loop
vertex 0.1928381200219628 -0.00046930842247746435 0
vertex 0.32463961997242907 -0.08557910879678149 0
vertex 0.3261123379712172 -0.09248640308243383 0
endloop
endfacet
facet normal -0 0 -1
outer loop
vertex 0.1928381200219628 -0.00046930842247746435 0
vertex 0.3261123379712172 -0.09248640308243383 0
vertex 0.3275249543015367 -0.09922168772143711 0
endloop
endfacet
facet normal -0 0 -1
outer loop
vertex 0.1928381200219628 -0.00046930842247746435 0
vertex 0.3275249543015367 -0.09922168772143711 0
vertex 0.3288813112824906 -0.10578664198269142 0
endloop
endfacet
facet normal -0 0 -1
outer loop
vertex 0.1928381200219628 -0.00046930842247746435 0
vertex 0.3288813112824906 -0.10578664198269142 0
vertex 0.33018500542644164 -0.1121830142106233 0
endloop
endfacet
facet normal -0 0 -1
outer loop
vertex 0.1928381200219628 -0.00046930842247746435 0
vertex 0.33018500542644164 -0.1121830142106233 0
vertex 0.331439397596103 -0.11841261113278109 0
endloop
endfacet
facet normal -0 0 -1
outer loop
vertex 0.1928381200219628 -0.00046930842247746435 0
vertex 0.331439397596103 -0.11841261113278109 0
vertex 0.3326476230166989 -0.12447728818288294 0
endloop
endfacet
facet normal -0 0 -1
outer loop
vertex 0.1928381200219628 -0.00046930842247746435 0
vertex 0.3326476230166989 -0.12447728818288294 0
vertex 0.3338126011064846 -0.13037894076377574 0
endloop
endfacet
facet normal -0 0 -1
outer loop
vertex 0.1928381200219628 -0.00046930842247746435 0
vertex 0.3338126011064846 -0.13037894076377574 0
vertex 0.3349370450955807 -0.13611949637868917 0
endloop
endfacet
facet normal -0 0 -1
outer loop
vertex 0.1928381200219628 -0.00046930842247746435 0
vertex 0.3349370450955807 -0.13611949637868917 0
vertex 0.3360234714089512 -0.14170090756312115 0
endloop
endfacet
facet normal -0 0 -1
outer loop
vertex 0.1928381200219628 -0.00046930842247746435 0
vertex 0.3360234714089512 -0.14170090756312115 0
vertex 0.33707420879450983 -0.1471251455536564 0
endloop
endfacet
facet normal -0 0 -1
outer loop
vertex 0.1928381200219628 -0.00046930842247746435 0
vertex 0.33707420879450983 -0.1471251455536564 0
vertex 0.33809140718183983 -0.15239419463389736 0
endloop
endfacet
facet normal -0 0 -1
outer loop
vertex 0.1928381200219628 -0.00046930842247746435 0
vertex 0.33809140718183983 -0.15239419463389736 0
vertex 0.3390770462609251 -0.15751004710150332 0
endloop
endfacet
facet normal -0 0 -1
outer loop
vertex 0.1928381200219628 -0.00046930842247746435 0
vertex 0.3390770462609251 -0.15751004710150332 0
vertex 0.3400329437736807 -0.16247469880402032 0
endloop
endfacet
facet normal -0 0 -1
outer loop
vertex 0.1928381200219628 -0.00046930842247746435 0
vertex 0.3400329437736807 -0.16247469880402032 0
vertex 0.3409607635139822 -0.16729014519473995 0
endloop
endfacet
facet normal -0 0 -1
outer loop
vertex 0.1928381200219628 -0.00046930842247746435 0
vertex 0.3409607635139822 -0.16729014519473995 0
vertex 0.34186202303438884 -0.17195837786323342 0
endloop
endfacet
facet normal -0 0 -1
outer loop
vertex 0.1928381200219628 -0.00046930842247746435 0
vertex 0.34186202303438884 -0.17195837786323342 0
vertex 0.34273810105987323 -0.17648138149846285 0
endloop
endfacet
facet normal -0 0 -1
outer loop
vertex 0.1928381200219628 -0.00046930842247746435 0
vertex 0.34273810105987323 -0.17648138149846285 0
vertex 0.3435902446106611 -0.18086113124545022 0
endloop
endfacet
facet normal -0 0 -1
outer loop
vertex 0.1928381200219628 -0.00046930842247746435 0
vertex 0.3435902446106611 -0.18086113124545022 0
vertex 0.3444195758377748 -0.18509959041941287 0
endloop
endfacet
facet normal -0 0 -1
outer loop
vertex 0.1928381200219628 -0.00046930842247746435 0
vertex 0.3444195758377748 -0.18509959041941287 0
vertex 0.34522709857611655 -0.1891987085440244 0
endloop
endfacet
facet normal -0 0 -1
outer loop
vertex 0.1928381200219628 -0.00046930842247746435 0
vertex 0.34522709857611655 -0.1891987085440244 0
vertex 0.3460137046209323 -0.19316041968305112 0
endloop
endfacet
facet normal -0 0 -1
outer loop
vertex 0.1928381200219628 -0.00046930842247746435 0
vertex 0.3460137046209323 -0.19316041968305112 0
vertex 0.3467801797343163 -0.19698664103704136 0
endloop
endfacet
facet normal -0 0 -1
outer loop
vertex 0.1928381200219628 -0.00046930842247746435 0
vertex 0.3467801797343163 -0.19698664103704136 0
vertex 0.34752720938904913 -0.2006792717790142 0
endloop
endfacet
facet normal -0 0 -1
outer loop
vertex 0.1928381200219628 -0.00046930842247746435 0
vertex 0.34752720938904913 -0.2006792717790142 0
vertex 0.34825538425756164 -0.20424019210521624 0
endloop
endfacet
facet normal -0 0 -1
outer loop
vertex 0.1928381200219628 -0.00046930842247746435 0
vertex 0.34825538425756164 -0.20424019210521624 0
vertex 0.34896520545416854 -0.20767126247898757 0
endloop
endfacet
facet normal -0 0 -1
outer loop
vertex 0.1928381200219628 -0.00046930842247746435 0
vertex 0.34896520545416854 -0.20767126247898757 0
vertex 0.3496570895389763 -0.21097432304761066 0
endloop
endfacet
facet normal -0 0 -1
outer loop
vertex 0.1928381200219628 -0.00046930842247746435 0
vertex 0.3496570895389763 -0.21097432304761066 0
vertex 0.35033137329201364 -0.21415119321372258 0
endloop
endfacet
facet normal -0 0 -1
outer loop
vertex 0.1928381200219628 -0.00046930842247746435 0
vertex 0.35033137329201364 -0.21415119321372258 0
vertex 0.350988318266217 -0.2172036713444458 0
endloop
endfacet
facet normal -0 0 -1
outer loop
vertex 0.1928381200219628 -0.00046930842247746435 0
vertex 0.350988318266217 -0.2172036713444458 0
vertex 0.3516281151278994 -0.22013353460285312 0
endloop
endfacet
facet normal -0 0 -1
outer loop
vertex 0.1928381200219628 -0.00046930842247746435 0
vertex 0.3516281151278994 -0.22013353460285312 0
vertex 0.35225088779328484 -0.22294253888773297 0
endloop
endfacet
facet normal -0 0 -1
outer loop
vertex 0.1928381200219628 -0.00046930842247746435 0
vertex 0.35225088779328484 -0.22294253888773297 0
vertex 0.3528566973695856 -0.22563241886886143 0
endloop
endfacet
facet normal -0 0 -1
outer loop
vertex 0.1928381200219628 -0.00046930842247746435 0
vertex 0.3528566973695856 -0.22563241886886143 0
vertex 0.3534455459089604 -0.22820488810614167 0
endloop
endfacet
facet normal -0 0 -1
outer loop
vertex 0.1928381200219628 -0.00046930842247746435 0
vertex 0.3534455459089604 -0.22820488810614167 0
vertex 0.35401737998352023 -0.23066163924201882 0
endloop
endfacet
facet normal -0 0 -1
outer loop
vertex 0.1928381200219628 -0.00046930842247746435 0
vertex 0.35401737998352023 -0.23066163924201882 0
vertex 0.3545720940893467 -0.23300434425755862 0
endloop
endfacet
facet normal -0 0 -1
outer loop
vertex 0.1928381200219628 -0.00046930842247746435 0
vertex 0.3545720940893467 -0.23300434425755862 0
vertex 0.35510953388727057 -0.2352346547834625 0
endloop
endfacet
facet normal -0 0 -1
outer loop
vertex 0.1928381200219628 -0.00046930842247746435 0
vertex 0.35510953388727057 -0.2352346547834625 0
vertex 0.3556294992879241 -0.23735420245811753 0
endloop
endfacet
facet normal -0 0 -1
outer loop
vertex 0.1928381200219628 -0.00046930842247746435 0
vertex 0.3556294992879241 -0.23735420245811753 0
vertex 0.35613174738833314 -0.23936459932552706 0
endloop
endfacet
facet normal -0 0 -1
outer loop
vertex 0.1928381200219628 -0.00046930842247746435 0
vertex 0.35613174738833314 -0.23936459932552706 0
vertex 0.3566159952670605 -0.24126743826665745 0
endloop
endfacet
facet normal -0 0 -1
outer loop
vertex 0.1928381200219628 -0.00046930842247746435 0
vertex 0.3566159952670605 -0.24126743826665745 0
vertex 0.3570819226446554 -0.24306429345836655 0
endloop
endfacet
facet normal -0 0 -1
outer loop
vertex 0.1928381200219628 -0.00046930842247746435 0
vertex 0.3570819226446554 -0.24306429345836655 0
vertex 0.3575291744158995 -0.2447567208546563 0
endloop
endfacet
facet normal -0 0 -1
outer loop
vertex 0.1928381200219628 -0.00046930842247746435 0
vertex 0.3575291744158995 -0.2447567208546563 0
vertex 0.3579573630600804 -0.2463462586855177 0
endloop
endfacet
facet normal -0 0 -1
outer loop
vertex 0.1928381200219628 -0.00046930842247746435 0
vertex 0.3579573630600804 -0.2463462586855177 0
vertex 0.3583660709352613 -0.24783442796911911 0
endloop
endfacet
facet normal -0 0 -1
outer loop
vertex 0.1928381200219628 -0.00046930842247746435 0
vertex 0.3583660709352613 -0.24783442796911911 0
vertex 0.35875485246226124 -0.2492227330335266 0
endloop
endfacet
facet normal -0 0 -1
outer loop
vertex 0.1928381200219628 -0.00046930842247746435 0
vertex 0.35875485246226124 -0.2492227330335266 0
vertex 0.3591232362038052 -0.25051266204454725 0
endloop
endfacet
facet normal -0 0 -1
outer loop
vertex 0.1928381200219628 -0.00046930842247746435 0
vertex 0.3591232362038052 -0.25051266204454725 0
vertex 0.3594707268440563 -0.2517056875366489 0
endloop
endfacet
facet normal -0 0 -1
outer loop
vertex 0.1928381200219628 -0.00046930842247746435 0
vertex 0.3594707268440563 -0.2517056875366489 0
vertex 0.35979680707350076 -0.25280326694424476 0
endloop
endfacet
facet normal -0 0 -1
outer loop
vertex 0.1928381200219628 -0.00046930842247746435 0
vertex 0.35979680707350076 -0.25280326694424476 0
vertex 0.3601009393839243 -0.2538068431309313 0
endloop
endfacet
facet normal -0 0 -1
outer loop
vertex 0.1928381200219628 -0.00046930842247746435 0
vertex 0.3601009393839243 -0.2538068431309313 0
vertex 0.36038256777798533 -0.25471784491454447 0
endloop
endfacet
facet normal -0 0 -1
outer loop
vertex 0.1928381200219628 -0.00046930842247746435 0
vertex 0.36038256777798533 -0.25471784491454447 0
vertex 0.3606411193976772 -0.25553768758614753 0
endloop
endfacet
facet normal -0 0 -1
outer loop
vertex 0.1928381200219628 -0.00046930842247746435 0
vertex 0.3606411193976772 -0.25553768758614753 0
vertex 0.3608760060757523 -0.25626777342129065 0
endloop
endfacet
facet normal -0 0 -1
outer loop
vertex 0.1928381200219628 -0.00046930842247746435 0
vertex 0.3608760060757523 -0.25626777342129065 0
vertex 0.3610866258139848 -0.2569094921820898 0
endloop
endfacet
facet normal -0 0 -1
outer loop
vertex 0.1928381200219628 -0.00046930842247746435 0
vertex 0.3610866258139848 -0.2569094921820898 0
vertex 0.36127236419194253 -0.257464221608854 0
endloop
endfacet
facet normal -0 0 -1
outer loop
vertex 0.1928381200219628 -0.00046930842247746435 0
vertex 0.36127236419194253 -0.257464221608854 0
vertex 0.3614325957097613 -0.2579333279001652 0
endloop
endfacet
facet normal -0 0 -1
outer loop
vertex 0.1928381200219628 -0.00046930842247746435 0
vertex 0.3614325957097613 -0.2579333279001652 0
vertex 0.36156668506822287 -0.2583181661804595 0
endloop
endfacet
facet normal -0 0 -1
outer loop
vertex 0.1928381200219628 -0.00046930842247746435 0
vertex 0.36156668506822287 -0.2583181661804595 0
vertex 0.36167398838927556 -0.2586200809543038 0
endloop
endfacet
facet normal -0 0 -1
outer loop
vertex 0.1928381200219628 -0.00046930842247746435 0
vertex 0.36167398838927556 -0.2586200809543038 0
vertex 0.3617538543799642 -0.2588404065466796 0
endloop
endfacet
facet normal -0 0 -1
outer loop
vertex 0.1928381200219628 -0.00046930842247746435 0
vertex 0.3617538543799642 -0.2588404065466796 0
vertex 0.3618056254425836 -0.2589804675287037 0
endloop
endfacet
facet normal -0 0 -1
outer loop
vertex 0.1928381200219628 -0.00046930842247746435 0
vertex 0.3618056254425836 -0.2589804675287037 0
vertex 0.3618286387337146 -0.2590415791283085 0
endloop
endfacet
facet normal -0 0 -1
outer loop
vertex 0.1928381200219628 -0.00046930842247746435 0
vertex 0.3618286387337146 -0.2590415791283085 0
vertex 0.36182222717466617 -0.2590250476255051 0
endloop
endfacet
facet normal -0 0 -1
outer loop
vertex 0.1928381200219628 -0.00046930842247746435 0
vertex 0.36182222717466617 -0.2590250476255051 0
vertex 0.36178572041570217 -0.2589321707319238 0
endloop
endfacet
facet normal -0 0 -1
outer loop
vertex 0.1928381200219628 -0.00046930842247746435 0
vertex 0.36178572041570217 -0.2589321707319238 0
vertex 0.36171844575630935 -0.2587642379544064 0
endloop
endfacet
facet normal -0 0 -1
outer loop
vertex 0.1928381200219628 -0.00046930842247746435 0
vertex 0.36171844575630935 -0.2587642379544064 0
vertex 0.36161972902363776 -0.2585225309424867 0
endloop
endfacet
facet normal -0 0 -1
outer loop
vertex 0.1928381200219628 -0.00046930842247746435 0
vertex 0.36161972902363776 -0.2585225309424867 0
vertex 0.36148889541112555 -0.2582083238196546 0
endloop
endfacet
facet normal -0 0 -1
outer loop
vertex 0.1928381200219628 -0.00046930842247746435 0
vertex 0.36148889541112555 -0.2582083238196546 0
vertex 0.361325270279214 -0.2578228834983501 0
endloop
endfacet
facet normal -0 0 -1
outer loop
vertex 0.1928381200219628 -0.00046930842247746435 0
vertex 0.361325270279214 -0.2578228834983501 0
vertex 0.36112817991995 -0.2573674699786819 0
endloop
endfacet
facet normal -0 0 -1
outer loop
vertex 0.1928381200219628 -0.00046930842247746435 0
vertex 0.36112817991995 -0.2573674699786819 0
vertex 0.3608969522871762 -0.2568433366309025 0
endloop
endfacet
facet normal -0 0 -1
outer loop
vertex 0.1928381200219628 -0.00046930842247746435 0
vertex 0.3608969522871762 -0.2568433366309025 0
vertex 0.3606309176939116 -0.2562517304617116 0
endloop
endfacet
facet normal -0 0 -1
outer loop
vertex 0.1928381200219628 -0.00046930842247746435 0
vertex 0.3606309176939116 -0.2562517304617116 0
vertex 0.3603294094784403 -0.25559389236448865 0
endloop
endfacet
facet normal -0 0 -1
outer loop
vertex 0.1928381200219628 -0.00046930842247746435 0
vertex 0.3603294094784403 -0.25559389236448865 0
vertex 0.35999176464053756 -0.2548710573535842 0
endloop
endfacet
facet normal -0 0 -1
outer loop
vertex 0.1928381200219628 -0.00046930842247746435 0
vertex 0.35999176464053756 -0.2548710573535842 0
vertex 0.35961732444918554 -0.2540844547828243 0
endloop
endfacet
facet normal -0 0 -1
outer loop
vertex 0.1928381200219628 -0.00046930842247746435 0
vertex 0.35961732444918554 -0.2540844547828243 0
vertex 0.35920543502305163 -0.253235308548403 0
endloop
endfacet
facet normal -0 0 -1
outer loop
vertex 0.1928381200219628 -0.00046930842247746435 0
vertex 0.35920543502305163 -0.253235308548403 0
vertex 0.3587554478849366 -0.25232483727635646 0
endloop
endfacet
facet normal -0 0 -1
outer loop
vertex 0.1928381200219628 -0.00046930842247746435 0
vertex 0.3587554478849366 -0.25232483727635646 0
vertex 0.358266720491325 -0.25135425449482685 0
endloop
endfacet
facet normal -0 0 -1
outer loop
vertex 0.1928381200219628 -0.00046930842247746435 0
vertex 0.358266720491325 -0.25135425449482685 0
vertex 0.35773861673811336 -0.25032476879134025 0
endloop
endfacet
facet normal -0 0 -1
outer loop
vertex 0.1928381200219628 -0.00046930842247746435 0
vertex 0.35773861673811336 -0.25032476879134025 0
vertex 0.35717050744352535 -0.2492375839553295 0
endloop
endfacet
endsolid 2D Sheet
